{"glyphs":{"0":{"ha":326,"x_min":26,"x_max":310,"o":"m 169 -4 q 70 23 114 -1 q 26 122 26 47 l 26 988 q 69 1075 26 1040 q 171 1110 113 1110 q 269 1074 228 1110 q 310 988 310 1039 l 310 121 q 269 22 310 47 q 179 -3 229 -3 q 176 -3 178 -3 q 175 -3 175 -3 q 172 -3 174 -3 q 169 -3 171 -3 l 169 -4 m 232 988 q 215 1024 232 1010 q 178 1040 199 1038 q 174 1040 176 1040 q 171 1040 172 1040 q 169 1040 169 1040 q 167 1040 168 1040 q 125 1024 144 1039 q 106 989 106 1010 l 106 122 q 122 78 106 94 q 169 63 139 63 q 216 78 200 63 q 232 121 232 94 l 232 988 l 232 988 z "},"1":{"ha":113,"x_min":19,"x_max":96,"o":"m 19 0 l 19 1110 l 96 1110 l 96 0 l 19 0 l 19 0 z "},"2":{"ha":326,"x_min":21,"x_max":301,"o":"m 174 381 q 163 380 168 381 q 153 378 158 379 q 114 358 132 372 q 96 325 96 344 l 96 65 l 296 65 l 296 -3 l 21 -3 l 21 326 q 60 409 21 376 q 144 450 99 442 q 158 452 151 451 q 172 453 165 453 q 210 476 196 454 q 225 549 225 497 l 225 989 q 206 1024 225 1011 q 163 1038 188 1038 q 117 1024 136 1038 q 97 988 97 1010 l 97 849 l 21 849 l 21 989 q 60 1073 21 1036 q 161 1110 100 1110 q 172 1109 167 1110 q 183 1108 178 1108 q 265 1072 228 1101 q 301 988 301 1042 l 301 547 q 267 429 301 478 q 174 381 232 381 l 174 381 z "},"3":{"ha":314,"x_min":19,"x_max":300,"o":"m 263 550 q 287 517 279 535 q 297 479 294 499 q 299 457 299 468 q 299 435 299 446 l 299 131 q 257 38 299 75 q 158 0 215 0 q 61 33 103 0 q 19 125 19 67 l 19 257 l 93 257 l 93 125 q 113 83 93 101 q 158 65 133 65 q 203 83 183 65 q 222 126 222 100 l 222 436 q 211 486 222 464 q 172 508 200 508 l 32 508 l 32 588 l 175 588 q 211 610 200 588 q 222 672 222 633 l 222 986 q 204 1019 222 1006 q 164 1035 186 1032 q 162 1035 163 1035 q 160 1035 161 1035 q 118 1022 136 1035 q 100 988 100 1010 l 100 844 l 22 844 l 22 986 q 65 1074 22 1039 q 160 1110 107 1110 q 163 1110 161 1110 q 165 1110 164 1110 q 168 1110 167 1110 q 171 1110 169 1110 q 262 1072 224 1107 q 300 986 300 1038 l 300 672 q 292 599 300 629 q 263 550 283 569 l 263 550 z "},"4":{"ha":358,"x_min":21,"x_max":350,"o":"m 294 329 l 294 -3 l 214 -3 l 214 329 l 21 329 l 21 385 l 144 1111 l 213 1111 l 97 400 l 215 400 l 215 1111 l 292 1111 l 292 400 l 350 400 l 350 329 l 294 329 l 294 329 z "},"5":{"ha":317,"x_min":19,"x_max":304,"o":"m 96 1042 l 96 706 l 161 706 q 261 658 224 706 q 300 553 299 610 q 300 551 300 551 q 300 549 300 550 l 300 122 q 263 40 300 75 q 179 0 225 6 q 171 -1 175 -1 q 163 -1 167 -1 q 63 35 107 -1 q 19 124 19 72 l 19 256 l 93 256 l 93 124 q 114 83 93 100 q 161 65 135 67 q 208 83 188 65 q 228 124 228 100 l 228 549 q 227 560 228 554 q 225 571 226 565 q 203 615 219 594 q 160 635 186 635 l 22 635 l 22 1113 l 304 1113 l 304 1042 l 96 1042 l 96 1042 z "},"6":{"ha":328,"x_min":25,"x_max":317,"o":"m 240 849 l 240 988 q 240 992 240 990 q 239 997 240 994 q 219 1026 235 1013 q 178 1039 203 1039 q 124 1024 146 1039 q 103 989 103 1008 l 103 675 q 125 685 114 681 q 149 690 136 689 q 164 692 156 692 q 179 693 172 693 q 201 691 189 693 q 225 685 213 689 q 281 641 256 674 q 307 546 307 608 l 307 121 q 264 31 307 65 q 164 -4 221 -4 q 65 31 106 -4 q 25 122 25 67 l 25 989 q 68 1069 25 1035 q 164 1108 111 1104 q 170 1110 167 1110 q 178 1110 174 1110 q 276 1075 235 1110 q 317 988 317 1040 l 317 849 l 240 849 l 240 849 m 231 547 q 230 556 231 551 q 229 567 229 561 q 213 603 225 586 q 181 621 201 621 q 169 620 175 621 q 157 618 163 619 q 119 599 136 614 q 103 549 103 583 l 103 121 q 121 81 103 97 q 163 64 139 64 q 167 64 165 64 q 172 65 169 64 q 213 84 194 68 q 231 121 231 100 l 231 547 l 231 547 z "},"7":{"ha":329,"x_min":14,"x_max":314,"o":"m 89 -3 l 14 -3 l 222 1039 l 43 1039 l 43 1110 l 314 1110 l 89 -3 l 89 -3 z "},"8":{"ha":318,"x_min":24,"x_max":301,"o":"m 163 -4 q 62 32 100 -3 q 24 122 24 67 l 24 475 q 35 521 24 501 q 64 556 46 540 q 34 600 44 575 q 24 651 24 625 l 24 989 q 68 1078 24 1044 q 165 1113 113 1113 q 260 1083 219 1111 q 301 990 301 1054 l 301 651 q 291 593 301 615 q 264 557 281 571 q 291 523 281 543 q 301 475 301 503 l 301 124 q 264 32 301 67 q 163 -3 226 -3 l 163 -4 m 228 475 q 208 510 228 500 q 164 521 189 521 q 156 520 160 521 q 150 519 153 519 q 115 503 131 515 q 99 474 99 492 l 99 124 q 118 83 99 100 q 160 65 138 67 q 162 65 161 65 q 164 65 163 65 q 208 81 189 65 q 228 124 228 97 l 228 475 l 228 475 m 228 990 q 213 1020 228 1007 q 181 1038 199 1033 q 172 1040 176 1039 q 164 1040 168 1040 q 119 1026 139 1040 q 99 988 99 1011 l 99 651 q 117 609 99 625 q 164 593 135 593 q 210 611 193 593 q 228 651 228 629 l 228 990 l 228 990 z "},"9":{"ha":325,"x_min":21,"x_max":304,"o":"m 161 -4 q 63 31 106 -1 q 21 121 21 64 l 21 257 l 93 257 l 93 121 q 93 117 93 119 q 93 114 93 115 q 115 78 97 94 q 163 63 133 63 q 210 80 190 63 q 231 121 231 97 l 231 438 q 192 422 213 428 q 151 417 172 417 q 67 443 96 417 q 28 501 38 469 q 24 521 25 511 q 22 539 22 531 l 22 990 q 66 1078 22 1044 q 161 1113 110 1111 q 163 1113 163 1113 q 165 1113 164 1113 q 173 1113 169 1113 q 179 1113 176 1113 q 265 1076 226 1107 q 304 990 304 1044 l 304 121 q 261 33 304 69 q 164 -3 218 -3 q 163 -3 164 -3 q 163 -3 163 -3 q 162 -3 163 -3 q 161 -3 161 -3 l 161 -4 m 231 989 q 215 1023 231 1010 q 179 1040 199 1036 q 173 1041 176 1040 q 165 1042 169 1042 q 122 1029 142 1042 q 101 989 101 1017 l 101 540 q 113 504 101 519 q 151 489 125 489 q 163 490 157 489 q 176 493 169 490 q 214 510 197 497 q 231 539 231 522 l 231 989 l 231 989 z "}," ":{"ha":217,"x_min":0,"x_max":0,"o":""}," ":{"ha":217,"x_min":0,"x_max":0,"o":""},"!":{"ha":129,"x_min":10,"x_max":119,"o":"m 64 -3 q 26 14 42 -1 q 10 51 10 29 q 26 90 10 75 q 64 106 42 106 q 103 90 88 106 q 119 51 119 75 q 103 14 119 29 q 64 -1 88 -1 l 64 -3 m 24 132 l 24 1110 l 97 1110 l 97 132 l 24 132 l 24 132 z "},"\"":{"ha":208,"x_min":11,"x_max":203,"o":"m 146 1175 q 185 1158 168 1175 q 203 1119 203 1142 q 190 1080 203 1104 q 128 988 176 1056 l 86 1010 q 89 1018 88 1014 q 92 1026 90 1022 q 94 1035 93 1031 q 97 1043 96 1039 q 100 1051 99 1047 q 103 1060 101 1056 q 82 1029 94 1047 q 53 988 69 1011 l 11 1010 q 15 1021 13 1015 q 19 1033 17 1026 q 20 1038 19 1035 q 22 1042 21 1040 q 28 1062 25 1053 q 32 1079 31 1071 q 24 1090 28 1083 q 19 1101 21 1096 q 16 1111 17 1107 q 15 1119 15 1115 q 32 1158 15 1142 q 71 1175 49 1175 q 92 1171 82 1175 q 108 1160 101 1167 q 126 1171 115 1167 q 146 1175 136 1175 l 146 1175 z "},"#":{"ha":217,"x_min":0,"x_max":0,"o":""},"$":{"ha":217,"x_min":0,"x_max":0,"o":""},"%":{"ha":217,"x_min":0,"x_max":0,"o":""},"&":{"ha":357,"x_min":25,"x_max":343,"o":"m 304 272 l 304 119 q 265 38 304 75 q 174 -3 226 0 q 171 -3 172 -3 q 168 -3 169 -3 q 165 -3 167 -3 q 163 -3 164 -3 q 67 28 110 -3 q 25 119 25 58 l 25 458 q 33 513 25 489 q 60 554 42 538 q 41 583 49 567 q 29 617 33 600 q 27 633 28 625 q 26 649 26 642 l 26 989 q 66 1072 26 1040 q 154 1110 106 1104 q 160 1110 157 1110 q 168 1110 164 1110 q 265 1077 222 1110 q 308 989 308 1044 l 308 850 l 236 850 l 236 989 q 218 1026 236 1011 q 171 1042 200 1042 q 123 1026 144 1040 q 101 988 101 1011 l 101 649 q 101 642 101 646 q 103 635 101 638 q 115 603 104 618 q 151 589 126 589 l 250 589 l 250 519 l 151 519 q 144 519 147 519 q 136 517 140 518 q 110 497 122 511 q 99 457 99 482 l 99 119 q 113 84 99 97 q 146 67 128 71 q 156 65 151 65 q 165 64 161 64 q 169 64 168 64 q 172 64 171 64 q 214 83 196 67 q 232 121 232 99 l 232 272 l 157 272 l 157 343 l 343 343 l 343 272 l 304 272 l 304 272 z "},"'":{"ha":143,"x_min":17,"x_max":133,"o":"m 58 988 l 17 1010 q 20 1021 18 1015 q 25 1033 22 1026 q 26 1038 25 1035 q 28 1042 26 1040 q 33 1062 31 1053 q 38 1079 36 1071 q 30 1090 33 1083 q 25 1101 26 1096 q 22 1111 22 1107 q 21 1119 21 1115 q 38 1158 21 1142 q 76 1175 54 1175 q 116 1158 99 1175 q 133 1119 133 1142 q 120 1080 133 1104 q 58 988 107 1056 l 58 988 z "},"(":{"ha":219,"x_min":22,"x_max":203,"o":"m 124 -3 q 108 53 124 -1 q 72 192 92 108 q 55 278 64 233 q 39 368 46 322 q 27 460 32 414 q 22 547 22 506 q 26 635 22 589 q 36 731 29 682 q 53 827 44 779 q 72 917 63 875 q 106 1055 90 1000 q 122 1110 122 1110 l 201 1110 q 185 1053 201 1110 q 150 913 169 997 q 132 828 140 872 q 115 739 124 785 q 103 640 108 689 q 99 547 99 590 q 103 456 99 504 q 117 358 108 408 q 133 273 124 315 q 151 192 142 231 q 187 53 171 108 q 203 -1 203 -1 l 124 -3 l 124 -3 z "},")":{"ha":214,"x_min":18,"x_max":200,"o":"m 97 -3 l 18 -3 q 35 54 18 -1 q 71 194 51 110 q 89 274 81 232 q 104 358 97 317 q 118 456 113 408 q 124 547 124 504 q 119 640 124 590 q 106 739 114 689 q 90 827 99 783 q 72 911 81 871 q 35 1053 51 996 q 19 1110 19 1110 l 99 1110 q 115 1054 99 1110 q 150 915 131 999 q 168 825 158 872 q 185 731 178 778 q 196 635 192 682 q 200 547 200 589 q 195 460 200 506 q 182 368 190 414 q 167 278 175 322 q 149 194 158 235 q 113 54 129 110 q 97 -1 97 -1 l 97 -3 z "},"*":{"ha":217,"x_min":0,"x_max":0,"o":""},"+":{"ha":217,"x_min":0,"x_max":0,"o":""},",":{"ha":124,"x_min":0,"x_max":117,"o":"m 42 -89 l 0 -67 q 3 -54 1 -60 q 8 -42 6 -49 q 9 -37 8 -40 q 11 -33 10 -35 q 17 -13 14 -22 q 21 3 19 -4 q 13 13 17 7 q 8 25 10 19 q 5 35 6 31 q 4 43 4 39 q 21 82 4 65 q 60 99 38 99 q 99 82 82 99 q 117 43 117 65 q 103 4 117 28 q 42 -87 90 -19 l 42 -89 z "},"-":{"ha":288,"x_min":31,"x_max":281,"o":"m 31 433 l 31 503 l 281 503 l 281 433 l 31 433 l 31 433 z "},".":{"ha":138,"x_min":10,"x_max":122,"o":"m 65 -6 q 26 13 43 -4 q 10 51 10 29 q 26 90 10 74 q 65 107 43 107 q 105 90 88 107 q 122 51 122 74 q 105 13 122 29 q 65 -4 88 -4 l 65 -6 z "},"/":{"ha":217,"x_min":0,"x_max":0,"o":""},":":{"ha":151,"x_min":33,"x_max":146,"o":"m 89 76 q 50 94 67 76 q 33 133 33 111 q 50 172 33 156 q 89 189 67 189 q 128 172 111 189 q 146 133 146 156 q 128 94 146 111 q 89 76 111 76 l 89 76 m 89 372 q 50 390 67 372 q 33 429 33 407 q 50 468 33 451 q 89 485 67 485 q 128 468 111 485 q 146 429 146 451 q 128 390 146 407 q 89 372 111 372 l 89 372 z "},";":{"ha":151,"x_min":21,"x_max":138,"o":"m 63 1 l 21 24 q 24 35 22 29 q 29 47 26 40 q 30 51 29 49 q 32 56 31 54 q 38 76 35 67 q 42 93 40 85 q 34 103 38 97 q 29 115 31 110 q 26 125 26 121 q 25 133 25 129 q 42 172 25 156 q 81 189 58 189 q 120 172 103 189 q 138 133 138 156 q 124 94 138 118 q 63 1 111 69 l 63 1 m 81 372 q 42 390 58 372 q 25 429 25 407 q 42 468 25 451 q 81 485 58 485 q 120 468 103 485 q 138 429 138 451 q 120 390 138 407 q 81 372 103 372 l 81 372 z "},"<":{"ha":217,"x_min":0,"x_max":0,"o":""},"=":{"ha":217,"x_min":0,"x_max":0,"o":""},">":{"ha":217,"x_min":0,"x_max":0,"o":""},"?":{"ha":333,"x_min":26,"x_max":313,"o":"m 158 0 q 119 17 136 0 q 103 57 103 35 q 119 96 103 79 q 158 113 136 113 q 198 96 181 113 q 215 57 215 79 q 198 17 215 35 q 158 0 181 0 l 158 0 m 197 276 l 197 132 l 122 132 l 122 336 q 143 340 132 338 q 165 347 154 343 q 215 376 193 357 q 238 431 238 394 l 239 992 q 220 1026 239 1013 q 179 1043 201 1039 q 176 1044 178 1043 q 172 1044 174 1044 q 170 1044 171 1044 q 168 1044 169 1044 q 121 1028 142 1044 q 100 993 100 1013 l 100 850 l 26 850 l 26 993 q 69 1078 26 1042 q 174 1115 111 1115 q 174 1115 174 1115 q 174 1115 174 1115 q 197 1113 175 1115 q 243 1100 218 1111 q 291 1064 269 1089 q 313 992 313 1039 l 313 428 q 289 344 313 375 q 238 296 265 313 q 217 284 226 289 q 197 276 207 279 l 197 276 z "},"@":{"ha":217,"x_min":0,"x_max":0,"o":""},"A":{"ha":364,"x_min":15,"x_max":349,"o":"m 279 -3 l 225 433 l 146 433 l 94 -3 l 21 -3 l 72 433 l 15 433 l 15 503 l 82 503 l 157 1110 l 221 1110 l 349 -3 l 279 -3 l 279 -3 m 188 792 l 153 503 l 217 503 l 188 792 l 188 792 z "},"B":{"ha":379,"x_min":18,"x_max":369,"o":"m 247 -3 l 90 -3 l 90 433 l 18 433 l 18 503 l 89 503 l 89 1110 l 242 1110 q 327 1078 290 1110 q 364 988 364 1046 l 364 546 q 355 503 364 522 q 331 469 346 485 q 358 437 347 457 q 369 376 369 417 l 369 124 q 332 35 369 72 q 247 -1 294 -1 l 247 -3 m 297 375 q 289 404 297 393 q 271 422 281 415 q 258 429 264 426 q 249 433 253 432 l 164 433 l 164 65 q 175 65 169 65 q 186 65 181 65 q 227 65 208 65 q 246 65 246 65 q 278 80 264 65 q 296 111 292 94 q 297 118 296 115 q 297 124 297 121 l 297 375 l 297 375 m 290 988 q 279 1020 290 1007 q 254 1038 268 1033 q 248 1040 251 1039 q 242 1040 244 1040 q 228 1040 242 1040 q 196 1040 215 1040 q 179 1040 188 1040 q 163 1040 171 1040 q 163 982 163 1018 q 163 901 163 946 q 163 809 163 858 q 163 710 163 760 q 163 601 163 654 q 163 503 163 549 l 247 503 q 249 503 249 503 q 251 503 250 503 q 275 516 264 504 q 289 540 286 528 q 290 544 290 542 q 290 547 290 546 l 290 988 l 290 988 z "},"C":{"ha":315,"x_min":18,"x_max":296,"o":"m 153 -4 q 59 22 100 -1 q 18 121 18 46 l 18 988 q 60 1079 18 1049 q 151 1110 101 1110 q 153 1110 153 1110 q 156 1110 154 1110 q 247 1073 206 1108 q 289 988 289 1038 l 289 854 l 219 854 l 219 988 q 199 1025 219 1010 q 151 1040 179 1040 q 109 1029 121 1040 q 93 1006 97 1018 q 92 996 93 1000 q 92 988 92 992 l 92 119 q 108 79 92 93 q 144 63 125 65 q 149 63 147 63 q 154 63 151 63 q 202 78 181 63 q 224 122 224 93 l 224 251 l 296 251 l 296 121 q 253 34 296 71 q 157 -3 211 -3 q 155 -3 156 -3 q 153 -3 154 -3 l 153 -4 z "},"D":{"ha":313,"x_min":19,"x_max":300,"o":"m 172 -3 l 19 -3 l 19 1110 l 174 1110 q 176 1110 175 1110 q 178 1110 176 1110 q 262 1074 224 1108 q 300 986 300 1039 l 300 122 q 271 36 300 74 q 172 -1 242 -1 l 172 -3 m 226 988 q 217 1013 226 1001 q 194 1032 207 1025 q 183 1037 189 1035 q 174 1039 178 1039 l 93 1039 l 93 67 l 171 67 q 210 82 196 67 q 226 115 224 97 q 226 119 226 117 q 226 122 226 121 l 226 988 l 226 988 z "},"E":{"ha":365,"x_min":11,"x_max":344,"o":"m 79 -3 l 79 433 l 11 433 l 11 503 l 78 503 l 78 1110 l 339 1110 l 339 1039 l 154 1039 l 154 503 l 344 503 l 344 433 l 154 433 l 154 65 l 344 65 l 344 -3 l 79 -3 l 79 -3 z "},"F":{"ha":364,"x_min":17,"x_max":342,"o":"m 156 433 l 156 -3 l 81 -3 l 81 433 l 17 433 l 17 503 l 81 503 l 81 1110 l 339 1110 l 339 1039 l 156 1039 l 156 503 l 342 503 l 342 433 l 156 433 l 156 433 z "},"G":{"ha":326,"x_min":19,"x_max":299,"o":"m 154 -6 q 60 31 100 -4 q 19 121 19 67 l 19 988 q 62 1078 19 1049 q 156 1110 104 1108 q 158 1110 157 1110 q 160 1110 158 1110 q 258 1078 218 1110 q 299 988 299 1046 l 299 856 l 226 856 l 226 988 q 226 991 226 989 q 225 994 226 993 q 203 1026 222 1011 q 160 1040 185 1040 q 112 1026 131 1040 q 93 988 93 1011 l 93 121 q 112 78 93 94 q 156 63 131 63 q 207 79 186 63 q 228 122 228 96 l 228 433 l 157 433 l 157 503 q 190 503 157 503 q 299 503 224 503 l 299 121 q 255 30 299 64 q 154 -4 211 -4 l 154 -6 z "},"H":{"ha":378,"x_min":14,"x_max":357,"o":"m 283 -3 l 283 433 l 144 433 l 144 -3 l 71 -3 l 71 433 l 14 433 l 14 503 l 69 503 l 69 1110 l 146 1110 l 146 503 l 282 503 l 282 1110 l 357 1110 l 357 -3 l 283 -3 l 283 -3 z "},"I":{"ha":118,"x_min":25,"x_max":101,"o":"m 25 -3 l 25 1110 l 101 1110 l 101 -3 l 25 -3 l 25 -3 z "},"J":{"ha":317,"x_min":15,"x_max":299,"o":"m 153 -6 q 56 30 97 -4 q 15 121 15 64 l 15 257 l 90 257 l 90 121 q 108 82 90 99 q 153 64 126 65 q 160 65 157 64 q 168 65 164 65 q 204 84 188 69 q 221 121 221 99 l 221 1110 l 299 1110 l 299 121 q 260 34 299 65 q 176 -3 222 3 q 164 -3 169 -3 q 153 -4 158 -4 l 153 -6 z "},"K":{"ha":451,"x_min":15,"x_max":436,"o":"m 286 124 l 286 376 q 286 383 286 379 q 285 390 286 386 q 269 420 282 407 q 233 433 257 433 l 153 433 l 153 -3 q 137 -1 153 -1 q 101 -1 121 -1 q 90 -1 96 -1 q 79 -1 85 -1 l 79 435 l 15 435 l 15 503 l 79 503 l 79 1110 l 151 1110 l 151 503 l 232 503 q 272 514 256 503 q 288 547 288 525 l 288 1110 l 360 1110 l 360 547 q 352 504 360 525 q 331 468 344 483 q 352 433 344 454 q 360 376 360 413 l 360 124 q 372 91 360 103 q 397 75 383 79 q 419 70 408 71 q 433 69 429 69 q 435 69 435 69 q 436 69 436 69 l 436 -6 q 433 -4 435 -4 q 428 -4 431 -4 q 331 21 375 0 q 286 124 286 42 l 286 124 z "},"L":{"ha":292,"x_min":14,"x_max":271,"o":"m 14 -3 l 14 1110 l 88 1110 l 88 65 l 271 65 l 271 -3 l 14 -3 l 14 -3 z "},"M":{"ha":561,"x_min":25,"x_max":543,"o":"m 469 -3 l 469 729 l 306 -3 l 256 -3 l 100 711 l 100 -3 l 25 -3 l 25 1110 l 94 1110 l 281 204 l 476 1110 l 543 1110 l 543 -3 l 469 -3 l 469 -3 z "},"N":{"ha":326,"x_min":25,"x_max":310,"o":"m 236 -3 l 101 686 l 101 -3 l 25 -3 l 25 1110 l 96 1110 l 235 396 l 235 1110 l 310 1110 l 310 -1 l 236 -3 l 236 -3 z "},"O":{"ha":321,"x_min":21,"x_max":304,"o":"m 164 -1 q 65 25 108 0 q 21 125 21 50 l 21 990 q 64 1078 21 1043 q 165 1113 107 1113 q 263 1077 222 1113 q 304 990 304 1042 l 304 124 q 264 25 304 50 q 174 0 224 0 q 171 0 172 0 q 169 0 169 0 q 167 0 168 0 q 164 0 165 0 l 164 -1 m 229 990 q 213 1025 229 1011 q 178 1042 197 1039 q 172 1043 175 1043 q 165 1043 168 1043 q 160 1043 163 1043 q 156 1042 158 1043 q 115 1025 133 1039 q 97 992 97 1011 l 97 125 q 115 81 97 97 q 164 65 133 65 q 212 81 194 65 q 229 124 229 97 l 229 990 l 229 990 z "},"P":{"ha":372,"x_min":15,"x_max":361,"o":"m 229 433 l 157 433 l 157 -3 l 82 -3 l 82 433 l 15 433 l 15 503 l 82 503 l 82 1110 l 231 1110 q 247 1109 239 1110 q 264 1108 256 1108 q 331 1078 300 1103 q 361 988 361 1054 l 361 549 q 330 467 361 500 q 229 433 299 433 l 229 433 m 286 988 q 269 1029 286 1019 q 231 1039 251 1039 l 157 1039 l 157 503 l 228 503 q 269 514 251 503 q 286 549 286 525 l 286 988 l 286 988 z "},"Q":{"ha":318,"x_min":22,"x_max":347,"o":"m 304 -14 l 247 33 q 217 13 233 21 q 185 1 201 4 q 168 -1 176 0 q 151 -1 160 -1 q 58 26 93 -1 q 22 124 22 53 l 22 992 q 63 1084 22 1056 q 153 1113 104 1113 q 155 1113 154 1113 q 157 1113 156 1113 q 251 1082 208 1111 q 293 989 293 1053 l 293 122 q 292 106 293 113 q 289 92 292 99 l 347 44 l 304 -14 l 304 -14 m 219 990 q 199 1028 219 1014 q 154 1042 179 1042 q 113 1029 129 1042 q 96 990 96 1017 l 96 124 q 110 81 96 93 q 151 65 124 68 q 161 66 156 65 q 172 67 167 67 q 183 70 178 68 q 193 76 189 72 l 119 133 l 167 189 l 219 149 l 219 990 l 219 990 z "},"R":{"ha":450,"x_min":15,"x_max":436,"o":"m 286 124 l 286 376 q 286 383 286 379 q 285 390 286 386 q 269 420 282 407 q 233 433 257 433 l 153 433 l 153 -3 q 137 -1 153 -1 q 101 -1 121 -1 q 90 -1 96 -1 q 79 -1 85 -1 l 79 435 l 15 435 l 15 503 l 79 503 l 79 1110 l 236 1110 q 324 1074 288 1110 q 360 988 360 1039 l 360 547 q 352 504 360 525 q 331 468 344 483 q 352 433 344 454 q 360 376 360 413 l 360 124 q 372 91 360 103 q 397 75 383 79 q 419 70 408 71 q 433 69 429 69 q 435 69 435 69 q 436 69 436 69 l 436 -6 q 433 -4 435 -4 q 428 -4 431 -4 q 331 21 375 0 q 286 124 286 42 l 286 124 m 288 988 q 273 1024 288 1008 q 238 1039 258 1039 l 151 1039 l 151 503 l 232 503 q 272 514 256 503 q 288 547 288 525 l 288 988 l 288 988 z "},"S":{"ha":321,"x_min":19,"x_max":307,"o":"m 236 861 l 236 986 q 217 1025 236 1008 q 169 1042 197 1042 q 163 1041 167 1042 q 157 1040 160 1040 q 118 1024 136 1038 q 100 988 100 1011 l 100 547 q 118 502 100 515 q 158 486 136 489 q 163 486 161 486 q 168 486 165 486 q 176 486 172 486 q 182 486 179 486 q 260 458 225 483 q 296 375 296 433 l 296 121 q 256 35 296 69 q 157 -3 215 0 q 58 34 94 -3 q 19 115 21 71 q 19 117 19 117 q 19 119 19 118 l 19 251 l 92 251 l 92 121 q 110 80 92 97 q 157 63 129 63 q 205 79 185 63 q 225 122 225 96 l 225 375 q 208 408 225 399 q 172 419 192 418 q 170 419 171 419 q 168 419 169 419 q 144 421 157 419 q 117 426 131 422 q 54 463 82 436 q 26 547 26 489 l 26 988 q 58 1065 26 1036 q 125 1104 89 1094 q 144 1108 135 1107 q 164 1110 154 1110 q 165 1110 164 1110 q 167 1110 165 1110 q 169 1110 168 1110 q 169 1110 169 1110 q 267 1075 228 1108 q 307 988 307 1042 l 307 861 l 236 861 l 236 861 z "},"T":{"ha":314,"x_min":19,"x_max":297,"o":"m 199 1039 l 199 -3 l 122 -3 l 122 1039 l 19 1039 l 19 1110 l 297 1110 l 297 1039 l 199 1039 l 199 1039 z "},"U":{"ha":326,"x_min":24,"x_max":310,"o":"m 167 -6 q 66 28 108 -4 q 24 121 24 61 l 24 1110 l 97 1110 l 97 121 q 115 82 97 97 q 156 64 133 67 q 160 63 158 63 q 165 63 163 63 q 167 63 167 63 q 169 63 168 63 q 215 79 194 64 q 236 119 236 94 l 236 1110 l 310 1110 l 310 119 q 278 44 310 75 q 208 1 246 14 q 187 -2 197 0 q 167 -4 176 -4 l 167 -6 z "},"V":{"ha":364,"x_min":18,"x_max":347,"o":"m 192 -3 l 129 -3 l 18 1110 l 92 1110 l 168 350 l 274 1110 l 347 1110 l 192 -3 l 192 -3 z "},"W":{"ha":531,"x_min":28,"x_max":529,"o":"m 403 -3 l 339 -3 l 279 714 l 190 -3 l 126 -3 l 28 1110 l 101 1110 l 171 407 l 247 1110 l 317 1110 l 385 418 l 457 1110 l 529 1110 l 403 -3 l 403 -3 z "},"X":{"ha":385,"x_min":22,"x_max":376,"o":"m 232 549 l 372 -3 l 296 -3 l 194 388 l 103 -3 l 22 -3 l 153 549 l 31 1110 l 110 1110 l 194 719 l 299 1110 l 376 1110 l 232 549 l 232 549 z "},"Y":{"ha":339,"x_min":17,"x_max":335,"o":"m 199 374 l 200 -3 l 128 -1 l 128 372 l 17 1110 l 94 1110 l 168 631 l 256 1110 l 335 1110 l 199 374 l 199 374 z "},"Z":{"ha":325,"x_min":19,"x_max":313,"o":"m 97 65 l 290 65 l 290 -3 l 19 -3 l 19 44 l 225 1039 l 38 1039 l 38 1110 l 313 1110 l 97 65 l 97 65 z "},"[":{"ha":217,"x_min":0,"x_max":0,"o":""},"\\":{"ha":217,"x_min":0,"x_max":0,"o":""},"]":{"ha":217,"x_min":0,"x_max":0,"o":""},"^":{"ha":217,"x_min":0,"x_max":0,"o":""},"_":{"ha":217,"x_min":0,"x_max":0,"o":""},"`":{"ha":217,"x_min":0,"x_max":0,"o":""},"a":{"ha":394,"x_min":19,"x_max":371,"o":"m 296 -3 l 296 433 l 163 433 l 163 -3 l 86 -3 l 86 433 l 19 433 l 19 503 l 86 503 l 86 988 q 124 1074 86 1044 q 207 1108 161 1103 q 218 1109 213 1108 q 229 1110 224 1110 q 250 1108 239 1110 q 272 1103 261 1107 q 340 1064 310 1093 q 371 988 371 1035 l 371 -3 l 296 -3 l 296 -3 m 296 989 q 284 1016 296 1004 q 257 1033 272 1028 q 244 1039 250 1038 q 232 1040 238 1040 q 226 1040 229 1040 q 219 1039 222 1040 q 181 1025 199 1036 q 163 989 163 1014 l 163 503 l 296 503 l 296 989 l 296 989 z "},"b":{"ha":379,"x_min":18,"x_max":369,"o":"m 247 -3 l 90 -3 l 90 433 l 18 433 l 18 503 l 89 503 l 89 1110 l 242 1110 q 327 1078 290 1110 q 364 988 364 1046 l 364 546 q 355 503 364 522 q 331 469 346 485 q 358 437 347 457 q 369 376 369 417 l 369 124 q 332 35 369 72 q 247 -1 294 -1 l 247 -3 m 297 375 q 289 404 297 393 q 271 422 281 415 q 258 429 264 426 q 249 433 253 432 l 164 433 l 164 65 q 175 65 169 65 q 186 65 181 65 q 227 65 208 65 q 246 65 246 65 q 278 80 264 65 q 296 111 292 94 q 297 118 296 115 q 297 124 297 121 l 297 375 l 297 375 m 290 988 q 279 1020 290 1007 q 254 1038 268 1033 q 248 1040 251 1039 q 242 1040 244 1040 q 228 1040 242 1040 q 196 1040 215 1040 q 179 1040 188 1040 q 163 1040 171 1040 q 163 982 163 1018 q 163 901 163 946 q 163 809 163 858 q 163 710 163 760 q 163 601 163 654 q 163 503 163 549 l 247 503 q 249 503 249 503 q 251 503 250 503 q 275 516 264 504 q 289 540 286 528 q 290 544 290 542 q 290 547 290 546 l 290 988 l 290 988 z "},"c":{"ha":315,"x_min":18,"x_max":296,"o":"m 153 -4 q 59 22 100 -1 q 18 121 18 46 l 18 988 q 60 1079 18 1049 q 151 1110 101 1110 q 153 1110 153 1110 q 156 1110 154 1110 q 247 1073 206 1108 q 289 988 289 1038 l 289 854 l 219 854 l 219 988 q 199 1025 219 1010 q 151 1040 179 1040 q 109 1029 121 1040 q 93 1006 97 1018 q 92 996 93 1000 q 92 988 92 992 l 92 119 q 108 79 92 93 q 144 63 125 65 q 149 63 147 63 q 154 63 151 63 q 202 78 181 63 q 224 122 224 93 l 224 251 l 296 251 l 296 121 q 253 34 296 71 q 157 -3 211 -3 q 155 -3 156 -3 q 153 -3 154 -3 l 153 -4 z "},"d":{"ha":313,"x_min":19,"x_max":300,"o":"m 172 -3 l 19 -3 l 19 1110 l 174 1110 q 176 1110 175 1110 q 178 1110 176 1110 q 262 1074 224 1108 q 300 986 300 1039 l 300 122 q 271 36 300 74 q 172 -1 242 -1 l 172 -3 m 226 988 q 217 1013 226 1001 q 194 1032 207 1025 q 183 1037 189 1035 q 174 1039 178 1039 l 93 1039 l 93 67 l 171 67 q 210 82 196 67 q 226 115 224 97 q 226 119 226 117 q 226 122 226 121 l 226 988 l 226 988 z "},"e":{"ha":365,"x_min":11,"x_max":344,"o":"m 79 -3 l 79 433 l 11 433 l 11 503 l 78 503 l 78 1110 l 339 1110 l 339 1039 l 154 1039 l 154 503 l 344 503 l 344 433 l 154 433 l 154 65 l 344 65 l 344 -3 l 79 -3 l 79 -3 z "},"f":{"ha":364,"x_min":17,"x_max":342,"o":"m 156 433 l 156 -3 l 81 -3 l 81 433 l 17 433 l 17 503 l 81 503 l 81 1110 l 339 1110 l 339 1039 l 156 1039 l 156 503 l 342 503 l 342 433 l 156 433 l 156 433 z "},"g":{"ha":326,"x_min":19,"x_max":299,"o":"m 154 -6 q 60 31 100 -4 q 19 121 19 67 l 19 988 q 62 1078 19 1049 q 156 1110 104 1108 q 158 1110 157 1110 q 160 1110 158 1110 q 258 1078 218 1110 q 299 988 299 1046 l 299 856 l 226 856 l 226 988 q 226 991 226 989 q 225 994 226 993 q 203 1026 222 1011 q 160 1040 185 1040 q 112 1026 131 1040 q 93 988 93 1011 l 93 121 q 112 78 93 94 q 156 63 131 63 q 207 79 186 63 q 228 122 228 96 l 228 433 l 157 433 l 157 503 q 190 503 157 503 q 299 503 224 503 l 299 121 q 255 30 299 64 q 154 -4 211 -4 l 154 -6 z "},"h":{"ha":378,"x_min":14,"x_max":357,"o":"m 283 -3 l 283 433 l 144 433 l 144 -3 l 71 -3 l 71 433 l 14 433 l 14 503 l 69 503 l 69 1110 l 146 1110 l 146 503 l 282 503 l 282 1110 l 357 1110 l 357 -3 l 283 -3 l 283 -3 z "},"i":{"ha":118,"x_min":25,"x_max":101,"o":"m 25 -3 l 25 1110 l 101 1110 l 101 -3 l 25 -3 l 25 -3 z "},"j":{"ha":317,"x_min":15,"x_max":299,"o":"m 153 -6 q 56 30 97 -4 q 15 121 15 64 l 15 257 l 90 257 l 90 121 q 108 82 90 99 q 153 64 126 65 q 160 65 157 64 q 168 65 164 65 q 204 84 188 69 q 221 121 221 99 l 221 1110 l 299 1110 l 299 121 q 260 34 299 65 q 176 -3 222 3 q 164 -3 169 -3 q 153 -4 158 -4 l 153 -6 z "},"k":{"ha":383,"x_min":19,"x_max":365,"o":"m 293 -3 l 293 376 q 292 381 293 379 q 292 386 292 383 q 265 419 286 404 q 214 433 243 433 l 161 433 l 161 -3 l 86 -3 l 86 433 l 19 433 l 19 503 l 86 503 l 86 1110 l 160 1110 l 160 503 l 183 503 l 289 1110 l 361 1110 l 257 500 q 333 456 301 490 q 365 376 365 421 l 365 -3 l 293 -3 l 293 -3 z "},"l":{"ha":292,"x_min":14,"x_max":271,"o":"m 14 -3 l 14 1110 l 88 1110 l 88 65 l 271 65 l 271 -3 l 14 -3 l 14 -3 z "},"m":{"ha":538,"x_min":31,"x_max":521,"o":"m 444 0 l 444 989 q 426 1026 444 1011 q 383 1043 408 1040 q 381 1043 382 1043 q 381 1043 381 1043 q 378 1043 379 1043 q 376 1043 378 1043 q 335 1028 353 1043 q 317 990 317 1014 l 317 0 l 239 0 l 239 992 q 215 1029 239 1015 q 164 1044 192 1043 q 124 1029 142 1044 q 107 992 107 1014 l 107 0 l 31 0 l 31 992 q 72 1078 31 1044 q 167 1113 113 1113 q 228 1103 199 1113 q 278 1072 257 1093 q 308 1093 292 1085 q 343 1107 325 1101 q 365 1111 354 1110 q 386 1113 376 1113 q 480 1075 439 1111 q 521 990 521 1039 l 521 0 l 444 0 l 444 0 z "},"n":{"ha":326,"x_min":25,"x_max":310,"o":"m 236 -3 l 101 686 l 101 -3 l 25 -3 l 25 1110 l 96 1110 l 235 396 l 235 1110 l 310 1110 l 310 -1 l 236 -3 l 236 -3 z "},"o":{"ha":321,"x_min":21,"x_max":304,"o":"m 164 -1 q 65 25 108 0 q 21 125 21 50 l 21 990 q 64 1078 21 1043 q 165 1113 107 1113 q 263 1077 222 1113 q 304 990 304 1042 l 304 124 q 264 25 304 50 q 174 0 224 0 q 171 0 172 0 q 169 0 169 0 q 167 0 168 0 q 164 0 165 0 l 164 -1 m 229 990 q 213 1025 229 1011 q 178 1042 197 1039 q 172 1043 175 1043 q 165 1043 168 1043 q 160 1043 163 1043 q 156 1042 158 1043 q 115 1025 133 1039 q 97 992 97 1011 l 97 125 q 115 81 97 97 q 164 65 133 65 q 212 81 194 65 q 229 124 229 97 l 229 990 l 229 990 z "},"p":{"ha":372,"x_min":15,"x_max":361,"o":"m 229 433 l 157 433 l 157 -3 l 82 -3 l 82 433 l 15 433 l 15 503 l 82 503 l 82 1110 l 231 1110 q 247 1109 239 1110 q 264 1108 256 1108 q 331 1078 300 1103 q 361 988 361 1054 l 361 549 q 330 467 361 500 q 229 433 299 433 l 229 433 m 286 988 q 269 1029 286 1019 q 231 1039 251 1039 l 157 1039 l 157 503 l 228 503 q 269 514 251 503 q 286 549 286 525 l 286 988 l 286 988 z "},"q":{"ha":318,"x_min":22,"x_max":347,"o":"m 304 -14 l 247 33 q 217 13 233 21 q 185 1 201 4 q 168 -1 176 0 q 151 -1 160 -1 q 58 26 93 -1 q 22 124 22 53 l 22 992 q 63 1084 22 1056 q 153 1113 104 1113 q 155 1113 154 1113 q 157 1113 156 1113 q 251 1082 208 1111 q 293 989 293 1053 l 293 122 q 292 106 293 113 q 289 92 292 99 l 347 44 l 304 -14 l 304 -14 m 219 990 q 199 1028 219 1014 q 154 1042 179 1042 q 113 1029 129 1042 q 96 990 96 1017 l 96 124 q 110 81 96 93 q 151 65 124 68 q 161 66 156 65 q 172 67 167 67 q 183 70 178 68 q 193 76 189 72 l 119 133 l 167 189 l 219 149 l 219 990 l 219 990 z "},"r":{"ha":450,"x_min":15,"x_max":436,"o":"m 286 124 l 286 376 q 286 383 286 379 q 285 390 286 386 q 269 420 282 407 q 233 433 257 433 l 153 433 l 153 -3 q 137 -1 153 -1 q 101 -1 121 -1 q 90 -1 96 -1 q 79 -1 85 -1 l 79 435 l 15 435 l 15 503 l 79 503 l 79 1110 l 236 1110 q 324 1074 288 1110 q 360 988 360 1039 l 360 547 q 352 504 360 525 q 331 468 344 483 q 352 433 344 454 q 360 376 360 413 l 360 124 q 372 91 360 103 q 397 75 383 79 q 419 70 408 71 q 433 69 429 69 q 435 69 435 69 q 436 69 436 69 l 436 -6 q 433 -4 435 -4 q 428 -4 431 -4 q 331 21 375 0 q 286 124 286 42 l 286 124 m 288 988 q 273 1024 288 1008 q 238 1039 258 1039 l 151 1039 l 151 503 l 232 503 q 272 514 256 503 q 288 547 288 525 l 288 988 l 288 988 z "},"s":{"ha":321,"x_min":19,"x_max":307,"o":"m 236 861 l 236 986 q 217 1025 236 1008 q 169 1042 197 1042 q 163 1041 167 1042 q 157 1040 160 1040 q 118 1024 136 1038 q 100 988 100 1011 l 100 547 q 118 502 100 515 q 158 486 136 489 q 163 486 161 486 q 168 486 165 486 q 176 486 172 486 q 182 486 179 486 q 260 458 225 483 q 296 375 296 433 l 296 121 q 256 35 296 69 q 157 -3 215 0 q 58 34 94 -3 q 19 115 21 71 q 19 117 19 117 q 19 119 19 118 l 19 251 l 92 251 l 92 121 q 110 80 92 97 q 157 63 129 63 q 205 79 185 63 q 225 122 225 96 l 225 375 q 208 408 225 399 q 172 419 192 418 q 170 419 171 419 q 168 419 169 419 q 144 421 157 419 q 117 426 131 422 q 54 463 82 436 q 26 547 26 489 l 26 988 q 58 1065 26 1036 q 125 1104 89 1094 q 144 1108 135 1107 q 164 1110 154 1110 q 165 1110 164 1110 q 167 1110 165 1110 q 169 1110 168 1110 q 169 1110 169 1110 q 267 1075 228 1108 q 307 988 307 1042 l 307 861 l 236 861 l 236 861 z "},"t":{"ha":314,"x_min":19,"x_max":297,"o":"m 199 1039 l 199 -3 l 122 -3 l 122 1039 l 19 1039 l 19 1110 l 297 1110 l 297 1039 l 199 1039 l 199 1039 z "},"u":{"ha":326,"x_min":24,"x_max":310,"o":"m 167 -6 q 66 28 108 -4 q 24 121 24 61 l 24 1110 l 97 1110 l 97 121 q 115 82 97 97 q 156 64 133 67 q 160 63 158 63 q 165 63 163 63 q 167 63 167 63 q 169 63 168 63 q 215 79 194 64 q 236 119 236 94 l 236 1110 l 310 1110 l 310 119 q 278 44 310 75 q 208 1 246 14 q 187 -2 197 0 q 167 -4 176 -4 l 167 -6 z "},"v":{"ha":364,"x_min":18,"x_max":347,"o":"m 192 -3 l 129 -3 l 18 1110 l 92 1110 l 168 350 l 274 1110 l 347 1110 l 192 -3 l 192 -3 z "},"w":{"ha":533,"x_min":26,"x_max":517,"o":"m 379 -3 q 318 8 347 -1 q 268 39 289 18 q 238 18 254 26 q 204 6 222 10 q 181 1 193 1 q 158 0 169 0 q 66 37 106 1 q 26 121 26 72 l 26 1110 l 103 1110 l 103 122 q 119 85 103 100 q 161 68 136 71 q 163 68 163 68 q 165 68 164 68 q 166 68 165 68 q 168 68 167 68 q 211 83 192 68 q 231 121 231 97 l 231 1110 l 308 1110 l 308 119 q 331 82 308 96 q 381 67 353 68 q 422 82 404 67 q 440 119 440 97 l 440 1110 l 517 1110 l 517 119 q 475 33 517 68 q 379 -1 433 -1 l 379 -3 z "},"x":{"ha":385,"x_min":22,"x_max":376,"o":"m 232 549 l 372 -3 l 296 -3 l 194 388 l 103 -3 l 22 -3 l 153 549 l 31 1110 l 110 1110 l 194 719 l 299 1110 l 376 1110 l 232 549 l 232 549 z "},"y":{"ha":321,"x_min":19,"x_max":303,"o":"m 160 -6 q 59 33 99 -4 q 19 122 19 71 l 19 256 l 97 256 l 97 124 q 97 119 97 121 q 99 114 97 117 q 117 78 101 94 q 161 61 133 61 q 210 79 193 61 q 226 122 226 97 l 226 447 q 196 440 213 442 q 163 436 179 438 q 159 436 161 436 q 154 436 157 436 q 138 437 146 436 q 122 440 131 438 q 60 474 89 447 q 32 547 32 500 l 32 1110 l 108 1110 l 108 549 q 124 515 108 526 q 160 503 140 503 q 206 515 188 503 q 225 549 225 526 l 225 1110 l 303 1110 l 303 118 q 260 29 303 63 q 160 -4 218 -4 l 160 -6 z "},"z":{"ha":325,"x_min":19,"x_max":313,"o":"m 97 65 l 290 65 l 290 -3 l 19 -3 l 19 44 l 225 1039 l 38 1039 l 38 1110 l 313 1110 l 97 65 l 97 65 z "},"{":{"ha":217,"x_min":0,"x_max":0,"o":""},"|":{"ha":217,"x_min":0,"x_max":0,"o":""},"}":{"ha":217,"x_min":0,"x_max":0,"o":""},"~":{"ha":217,"x_min":0,"x_max":0,"o":""},"Ä":{"ha":1067,"x_min":0,"x_max":0,"o":""},"Å":{"ha":1067,"x_min":0,"x_max":0,"o":""},"Ç":{"ha":1067,"x_min":0,"x_max":0,"o":""},"É":{"ha":1067,"x_min":0,"x_max":0,"o":""},"Ñ":{"ha":1067,"x_min":0,"x_max":0,"o":""},"Ö":{"ha":1067,"x_min":0,"x_max":0,"o":""},"Ü":{"ha":1067,"x_min":0,"x_max":0,"o":""},"á":{"ha":1067,"x_min":0,"x_max":0,"o":""},"à":{"ha":1067,"x_min":0,"x_max":0,"o":""},"â":{"ha":1067,"x_min":0,"x_max":0,"o":""},"ä":{"ha":1067,"x_min":0,"x_max":0,"o":""},"ã":{"ha":1067,"x_min":0,"x_max":0,"o":""},"å":{"ha":1067,"x_min":0,"x_max":0,"o":""},"ç":{"ha":1067,"x_min":0,"x_max":0,"o":""},"é":{"ha":1067,"x_min":0,"x_max":0,"o":""},"è":{"ha":1067,"x_min":0,"x_max":0,"o":""},"ê":{"ha":1067,"x_min":0,"x_max":0,"o":""},"ë":{"ha":1067,"x_min":0,"x_max":0,"o":""},"í":{"ha":1067,"x_min":0,"x_max":0,"o":""},"ì":{"ha":1067,"x_min":0,"x_max":0,"o":""},"î":{"ha":1067,"x_min":0,"x_max":0,"o":""},"ï":{"ha":1067,"x_min":0,"x_max":0,"o":""},"ñ":{"ha":1067,"x_min":0,"x_max":0,"o":""},"ó":{"ha":1067,"x_min":0,"x_max":0,"o":""},"ò":{"ha":1067,"x_min":0,"x_max":0,"o":""},"ô":{"ha":1067,"x_min":0,"x_max":0,"o":""},"ö":{"ha":1067,"x_min":0,"x_max":0,"o":""},"õ":{"ha":1067,"x_min":0,"x_max":0,"o":""},"ú":{"ha":1067,"x_min":0,"x_max":0,"o":""},"ù":{"ha":1067,"x_min":0,"x_max":0,"o":""},"û":{"ha":1067,"x_min":0,"x_max":0,"o":""},"ü":{"ha":1067,"x_min":0,"x_max":0,"o":""},"†":{"ha":1067,"x_min":0,"x_max":0,"o":""},"¢":{"ha":1067,"x_min":0,"x_max":0,"o":""},"£":{"ha":1067,"x_min":0,"x_max":0,"o":""},"§":{"ha":1067,"x_min":0,"x_max":0,"o":""},"¶":{"ha":1067,"x_min":0,"x_max":0,"o":""},"ß":{"ha":1067,"x_min":0,"x_max":0,"o":""},"®":{"ha":1067,"x_min":0,"x_max":0,"o":""},"©":{"ha":1067,"x_min":0,"x_max":0,"o":""},"™":{"ha":1067,"x_min":0,"x_max":0,"o":""},"´":{"ha":1067,"x_min":0,"x_max":0,"o":""},"¨":{"ha":1067,"x_min":0,"x_max":0,"o":""},"≠":{"ha":1067,"x_min":0,"x_max":0,"o":""},"Æ":{"ha":1067,"x_min":0,"x_max":0,"o":""},"Ø":{"ha":1067,"x_min":0,"x_max":0,"o":""},"∞":{"ha":1067,"x_min":0,"x_max":0,"o":""},"±":{"ha":1067,"x_min":0,"x_max":0,"o":""},"≤":{"ha":1067,"x_min":0,"x_max":0,"o":""},"≥":{"ha":1067,"x_min":0,"x_max":0,"o":""},"¥":{"ha":1067,"x_min":0,"x_max":0,"o":""},"µ":{"ha":1067,"x_min":0,"x_max":0,"o":""},"∂":{"ha":1067,"x_min":0,"x_max":0,"o":""},"Σ":{"ha":1067,"x_min":0,"x_max":0,"o":""},"∏":{"ha":1067,"x_min":0,"x_max":0,"o":""},"π":{"ha":1067,"x_min":0,"x_max":0,"o":""},"∫":{"ha":1067,"x_min":0,"x_max":0,"o":""},"ª":{"ha":1067,"x_min":0,"x_max":0,"o":""},"º":{"ha":1067,"x_min":0,"x_max":0,"o":""},"Ω":{"ha":1067,"x_min":0,"x_max":0,"o":""},"æ":{"ha":1067,"x_min":0,"x_max":0,"o":""},"ø":{"ha":1067,"x_min":0,"x_max":0,"o":""},"¿":{"ha":1067,"x_min":0,"x_max":0,"o":""},"¡":{"ha":1067,"x_min":0,"x_max":0,"o":""},"¬":{"ha":1067,"x_min":0,"x_max":0,"o":""},"√":{"ha":1067,"x_min":0,"x_max":0,"o":""},"ƒ":{"ha":1067,"x_min":0,"x_max":0,"o":""},"≈":{"ha":1067,"x_min":0,"x_max":0,"o":""},"∆":{"ha":1067,"x_min":0,"x_max":0,"o":""},"«":{"ha":1067,"x_min":0,"x_max":0,"o":""},"»":{"ha":1067,"x_min":0,"x_max":0,"o":""},"…":{"ha":1067,"x_min":0,"x_max":0,"o":""},"À":{"ha":1067,"x_min":0,"x_max":0,"o":""},"Ã":{"ha":1067,"x_min":0,"x_max":0,"o":""},"Õ":{"ha":1067,"x_min":0,"x_max":0,"o":""},"Œ":{"ha":1067,"x_min":0,"x_max":0,"o":""},"œ":{"ha":1067,"x_min":0,"x_max":0,"o":""},"—":{"ha":1067,"x_min":0,"x_max":0,"o":""},"“":{"ha":1067,"x_min":0,"x_max":0,"o":""},"”":{"ha":1067,"x_min":0,"x_max":0,"o":""},"‘":{"ha":1067,"x_min":0,"x_max":0,"o":""},"’":{"ha":1067,"x_min":0,"x_max":0,"o":""},"÷":{"ha":1067,"x_min":0,"x_max":0,"o":""},"◊":{"ha":1067,"x_min":0,"x_max":0,"o":""},"ÿ":{"ha":1067,"x_min":0,"x_max":0,"o":""},"Ÿ":{"ha":1067,"x_min":0,"x_max":0,"o":""},"∕":{"ha":1067,"x_min":0,"x_max":0,"o":""},"¤":{"ha":1067,"x_min":0,"x_max":0,"o":""},"‹":{"ha":1067,"x_min":0,"x_max":0,"o":""},"›":{"ha":1067,"x_min":0,"x_max":0,"o":""},"":{"ha":1067,"x_min":0,"x_max":0,"o":""},"":{"ha":1067,"x_min":0,"x_max":0,"o":""},"‡":{"ha":1067,"x_min":0,"x_max":0,"o":""},"∙":{"ha":1067,"x_min":0,"x_max":0,"o":""},"‚":{"ha":1067,"x_min":0,"x_max":0,"o":""},"„":{"ha":1067,"x_min":0,"x_max":0,"o":""},"‰":{"ha":1067,"x_min":0,"x_max":0,"o":""},"Â":{"ha":1067,"x_min":0,"x_max":0,"o":""},"Ê":{"ha":1067,"x_min":0,"x_max":0,"o":""},"Á":{"ha":1067,"x_min":0,"x_max":0,"o":""},"Ë":{"ha":1067,"x_min":0,"x_max":0,"o":""},"È":{"ha":1067,"x_min":0,"x_max":0,"o":""},"Í":{"ha":1067,"x_min":0,"x_max":0,"o":""},"Î":{"ha":1067,"x_min":0,"x_max":0,"o":""},"Ï":{"ha":1067,"x_min":0,"x_max":0,"o":""},"Ì":{"ha":1067,"x_min":0,"x_max":0,"o":""},"Ó":{"ha":1067,"x_min":0,"x_max":0,"o":""},"Ô":{"ha":1067,"x_min":0,"x_max":0,"o":""},"":{"ha":1067,"x_min":0,"x_max":0,"o":""},"Ò":{"ha":1067,"x_min":0,"x_max":0,"o":""},"Ú":{"ha":1067,"x_min":0,"x_max":0,"o":""},"Û":{"ha":1067,"x_min":0,"x_max":0,"o":""},"Ù":{"ha":1067,"x_min":0,"x_max":0,"o":""},"ı":{"ha":1067,"x_min":0,"x_max":0,"o":""},"˜":{"ha":1067,"x_min":0,"x_max":0,"o":""},"ˆ":{"ha":1067,"x_min":0,"x_max":0,"o":""},"ˉ":{"ha":1067,"x_min":0,"x_max":0,"o":""},"˘":{"ha":1067,"x_min":0,"x_max":0,"o":""},"˙":{"ha":1067,"x_min":0,"x_max":0,"o":""},"˚":{"ha":1067,"x_min":0,"x_max":0,"o":""},"¸":{"ha":1067,"x_min":0,"x_max":0,"o":""},"ʺ":{"ha":1067,"x_min":0,"x_max":0,"o":""},"˛":{"ha":1067,"x_min":0,"x_max":0,"o":""},"ˇ":{"ha":1067,"x_min":0,"x_max":0,"o":""},"Ł":{"ha":1067,"x_min":0,"x_max":0,"o":""},"ł":{"ha":1067,"x_min":0,"x_max":0,"o":""},"Š":{"ha":1067,"x_min":0,"x_max":0,"o":""},"š":{"ha":1067,"x_min":0,"x_max":0,"o":""},"Ž":{"ha":1067,"x_min":0,"x_max":0,"o":""},"ž":{"ha":1067,"x_min":0,"x_max":0,"o":""},"¦":{"ha":1067,"x_min":0,"x_max":0,"o":""},"Ð":{"ha":1067,"x_min":0,"x_max":0,"o":""},"ð":{"ha":1067,"x_min":0,"x_max":0,"o":""},"Ý":{"ha":1067,"x_min":0,"x_max":0,"o":""},"ý":{"ha":1067,"x_min":0,"x_max":0,"o":""},"Þ":{"ha":1067,"x_min":0,"x_max":0,"o":""},"þ":{"ha":1067,"x_min":0,"x_max":0,"o":""},"−":{"ha":1067,"x_min":0,"x_max":0,"o":""},"×":{"ha":1067,"x_min":0,"x_max":0,"o":""},"¹":{"ha":1067,"x_min":0,"x_max":0,"o":""},"²":{"ha":1067,"x_min":0,"x_max":0,"o":""},"³":{"ha":1067,"x_min":0,"x_max":0,"o":""},"½":{"ha":1067,"x_min":0,"x_max":0,"o":""},"¼":{"ha":1067,"x_min":0,"x_max":0,"o":""},"¾":{"ha":1067,"x_min":0,"x_max":0,"o":""},"₣":{"ha":1067,"x_min":0,"x_max":0,"o":""},"Ğ":{"ha":1067,"x_min":0,"x_max":0,"o":""},"ğ":{"ha":1067,"x_min":0,"x_max":0,"o":""},"İ":{"ha":1067,"x_min":0,"x_max":0,"o":""},"Ş":{"ha":1067,"x_min":0,"x_max":0,"o":""},"ş":{"ha":1067,"x_min":0,"x_max":0,"o":""},"Ć":{"ha":1067,"x_min":0,"x_max":0,"o":""},"ć":{"ha":1067,"x_min":0,"x_max":0,"o":""},"Č":{"ha":1067,"x_min":0,"x_max":0,"o":""},"č":{"ha":1067,"x_min":0,"x_max":0,"o":""},"đ":{"ha":1067,"x_min":0,"x_max":0,"o":""},"→":{"ha":1067,"x_min":0,"x_max":0,"o":""},"⌂":{"ha":1067,"x_min":0,"x_max":0,"o":""},"–":{"ha":1067,"x_min":0,"x_max":0,"o":""},"­":{"ha":1067,"x_min":0,"x_max":0,"o":""},"■":{"ha":1067,"x_min":0,"x_max":0,"o":""},"•":{"ha":1067,"x_min":0,"x_max":0,"o":""},"¯":{"ha":1067,"x_min":0,"x_max":0,"o":""},"°":{"ha":1067,"x_min":0,"x_max":0,"o":""},"·":{"ha":1067,"x_min":0,"x_max":0,"o":""},"‗":{"ha":1067,"x_min":0,"x_max":0,"o":""},"‼":{"ha":1067,"x_min":0,"x_max":0,"o":""},"ⁿ":{"ha":1067,"x_min":0,"x_max":0,"o":""},"₧":{"ha":1067,"x_min":0,"x_max":0,"o":""},"Γ":{"ha":1067,"x_min":0,"x_max":0,"o":""},"Θ":{"ha":1067,"x_min":0,"x_max":0,"o":""},"Φ":{"ha":1067,"x_min":0,"x_max":0,"o":""},"α":{"ha":1067,"x_min":0,"x_max":0,"o":""},"δ":{"ha":1067,"x_min":0,"x_max":0,"o":""},"ε":{"ha":1067,"x_min":0,"x_max":0,"o":""},"σ":{"ha":1067,"x_min":0,"x_max":0,"o":""},"τ":{"ha":1067,"x_min":0,"x_max":0,"o":""},"φ":{"ha":1067,"x_min":0,"x_max":0,"o":""},"←":{"ha":1067,"x_min":0,"x_max":0,"o":""},"↑":{"ha":1067,"x_min":0,"x_max":0,"o":""},"↓":{"ha":1067,"x_min":0,"x_max":0,"o":""},"↔":{"ha":1067,"x_min":0,"x_max":0,"o":""},"↕":{"ha":1067,"x_min":0,"x_max":0,"o":""},"↨":{"ha":1067,"x_min":0,"x_max":0,"o":""},"∟":{"ha":1067,"x_min":0,"x_max":0,"o":""},"∩":{"ha":1067,"x_min":0,"x_max":0,"o":""},"≡":{"ha":1067,"x_min":0,"x_max":0,"o":""},"⌐":{"ha":1067,"x_min":0,"x_max":0,"o":""},"⌠":{"ha":1067,"x_min":0,"x_max":0,"o":""},"⌡":{"ha":1067,"x_min":0,"x_max":0,"o":""},"▬":{"ha":1067,"x_min":0,"x_max":0,"o":""},"○":{"ha":1067,"x_min":0,"x_max":0,"o":""},"▲":{"ha":1067,"x_min":0,"x_max":0,"o":""},"►":{"ha":1067,"x_min":0,"x_max":0,"o":""},"▼":{"ha":1067,"x_min":0,"x_max":0,"o":""},"◄":{"ha":1067,"x_min":0,"x_max":0,"o":""},"◘":{"ha":1067,"x_min":0,"x_max":0,"o":""},"◙":{"ha":1067,"x_min":0,"x_max":0,"o":""},"Ř":{"ha":1067,"x_min":0,"x_max":0,"o":""},"▀":{"ha":1067,"x_min":0,"x_max":0,"o":""},"▄":{"ha":1067,"x_min":0,"x_max":0,"o":""},"█":{"ha":1067,"x_min":0,"x_max":0,"o":""},"▌":{"ha":1067,"x_min":0,"x_max":0,"o":""},"▐":{"ha":1067,"x_min":0,"x_max":0,"o":""},"░":{"ha":1067,"x_min":0,"x_max":0,"o":""},"▒":{"ha":1067,"x_min":0,"x_max":0,"o":""},"▓":{"ha":1067,"x_min":0,"x_max":0,"o":""},"☺":{"ha":1067,"x_min":0,"x_max":0,"o":""},"☻":{"ha":1067,"x_min":0,"x_max":0,"o":""},"☼":{"ha":1067,"x_min":0,"x_max":0,"o":""},"♀":{"ha":1067,"x_min":0,"x_max":0,"o":""},"♂":{"ha":1067,"x_min":0,"x_max":0,"o":""},"♠":{"ha":1067,"x_min":0,"x_max":0,"o":""},"♣":{"ha":1067,"x_min":0,"x_max":0,"o":""},"♥":{"ha":1067,"x_min":0,"x_max":0,"o":""},"♦":{"ha":1067,"x_min":0,"x_max":0,"o":""},"♪":{"ha":1067,"x_min":0,"x_max":0,"o":""},"♫":{"ha":1067,"x_min":0,"x_max":0,"o":""},"Ă":{"ha":1067,"x_min":0,"x_max":0,"o":""},"ă":{"ha":1067,"x_min":0,"x_max":0,"o":""},"Ą":{"ha":1067,"x_min":0,"x_max":0,"o":""},"ą":{"ha":1067,"x_min":0,"x_max":0,"o":""},"Ď":{"ha":1067,"x_min":0,"x_max":0,"o":""},"ď":{"ha":1067,"x_min":0,"x_max":0,"o":""},"Đ":{"ha":1067,"x_min":0,"x_max":0,"o":""},"Ę":{"ha":1067,"x_min":0,"x_max":0,"o":""},"ę":{"ha":1067,"x_min":0,"x_max":0,"o":""},"Ě":{"ha":1067,"x_min":0,"x_max":0,"o":""},"ě":{"ha":1067,"x_min":0,"x_max":0,"o":""},"Ĺ":{"ha":1067,"x_min":0,"x_max":0,"o":""},"ĺ":{"ha":1067,"x_min":0,"x_max":0,"o":""},"Ľ":{"ha":1067,"x_min":0,"x_max":0,"o":""},"ľ":{"ha":1067,"x_min":0,"x_max":0,"o":""},"Ń":{"ha":1067,"x_min":0,"x_max":0,"o":""},"ń":{"ha":1067,"x_min":0,"x_max":0,"o":""},"Ň":{"ha":1067,"x_min":0,"x_max":0,"o":""},"ň":{"ha":1067,"x_min":0,"x_max":0,"o":""},"Ő":{"ha":1067,"x_min":0,"x_max":0,"o":""},"ő":{"ha":1067,"x_min":0,"x_max":0,"o":""},"Ŕ":{"ha":1067,"x_min":0,"x_max":0,"o":""},"ŕ":{"ha":1067,"x_min":0,"x_max":0,"o":""},"ř":{"ha":1067,"x_min":0,"x_max":0,"o":""},"Ś":{"ha":1067,"x_min":0,"x_max":0,"o":""},"ś":{"ha":1067,"x_min":0,"x_max":0,"o":""},"Ţ":{"ha":1067,"x_min":0,"x_max":0,"o":""},"ţ":{"ha":1067,"x_min":0,"x_max":0,"o":""},"Ť":{"ha":1067,"x_min":0,"x_max":0,"o":""},"ť":{"ha":1067,"x_min":0,"x_max":0,"o":""},"Ů":{"ha":1067,"x_min":0,"x_max":0,"o":""},"ů":{"ha":1067,"x_min":0,"x_max":0,"o":""},"ű":{"ha":1067,"x_min":0,"x_max":0,"o":""},"Ű":{"ha":1067,"x_min":0,"x_max":0,"o":""},"Ź":{"ha":1067,"x_min":0,"x_max":0,"o":""},"ź":{"ha":1067,"x_min":0,"x_max":0,"o":""},"Ż":{"ha":1067,"x_min":0,"x_max":0,"o":""},"ż":{"ha":1067,"x_min":0,"x_max":0,"o":""},"Ŀ":{"ha":1067,"x_min":0,"x_max":0,"o":""},"ŀ":{"ha":1067,"x_min":0,"x_max":0,"o":""},"─":{"ha":1067,"x_min":0,"x_max":0,"o":""},"│":{"ha":1067,"x_min":0,"x_max":0,"o":""},"┌":{"ha":1067,"x_min":0,"x_max":0,"o":""},"┐":{"ha":1067,"x_min":0,"x_max":0,"o":""},"└":{"ha":1067,"x_min":0,"x_max":0,"o":""},"┘":{"ha":1067,"x_min":0,"x_max":0,"o":""},"├":{"ha":1067,"x_min":0,"x_max":0,"o":""},"┤":{"ha":1067,"x_min":0,"x_max":0,"o":""},"┬":{"ha":1067,"x_min":0,"x_max":0,"o":""},"┴":{"ha":1067,"x_min":0,"x_max":0,"o":""},"┼":{"ha":1067,"x_min":0,"x_max":0,"o":""},"═":{"ha":1067,"x_min":0,"x_max":0,"o":""},"║":{"ha":1067,"x_min":0,"x_max":0,"o":""},"╒":{"ha":1067,"x_min":0,"x_max":0,"o":""},"╓":{"ha":1067,"x_min":0,"x_max":0,"o":""},"╔":{"ha":1067,"x_min":0,"x_max":0,"o":""},"╕":{"ha":1067,"x_min":0,"x_max":0,"o":""},"╖":{"ha":1067,"x_min":0,"x_max":0,"o":""},"╗":{"ha":1067,"x_min":0,"x_max":0,"o":""},"╘":{"ha":1067,"x_min":0,"x_max":0,"o":""},"╙":{"ha":1067,"x_min":0,"x_max":0,"o":""},"╚":{"ha":1067,"x_min":0,"x_max":0,"o":""},"╛":{"ha":1067,"x_min":0,"x_max":0,"o":""},"╜":{"ha":1067,"x_min":0,"x_max":0,"o":""},"╝":{"ha":1067,"x_min":0,"x_max":0,"o":""},"╞":{"ha":1067,"x_min":0,"x_max":0,"o":""},"╟":{"ha":1067,"x_min":0,"x_max":0,"o":""},"╠":{"ha":1067,"x_min":0,"x_max":0,"o":""},"╡":{"ha":1067,"x_min":0,"x_max":0,"o":""},"╢":{"ha":1067,"x_min":0,"x_max":0,"o":""},"╣":{"ha":1067,"x_min":0,"x_max":0,"o":""},"╤":{"ha":1067,"x_min":0,"x_max":0,"o":""},"╥":{"ha":1067,"x_min":0,"x_max":0,"o":""},"╦":{"ha":1067,"x_min":0,"x_max":0,"o":""},"╧":{"ha":1067,"x_min":0,"x_max":0,"o":""},"╨":{"ha":1067,"x_min":0,"x_max":0,"o":""},"╩":{"ha":1067,"x_min":0,"x_max":0,"o":""},"╪":{"ha":1067,"x_min":0,"x_max":0,"o":""},"╫":{"ha":1067,"x_min":0,"x_max":0,"o":""},"╬":{"ha":1067,"x_min":0,"x_max":0,"o":""}}}
